<svg width="162" height="60" viewBox="0 0 162 60" fill="none" xmlns="http://www.w3.org/2000/svg">
<path d="M16.985 16.485H5.915V12.645H16.28V8.145H5.915V4.515H16.925V-1.43051e-06H0.905V21H16.985V16.485ZM26.7197 5.88C22.0247 5.88 18.7847 9.135 18.7847 13.635C18.7847 18.135 22.0247 21.39 26.7197 21.39C29.4497 21.39 31.6097 20.19 33.0197 18.195L29.3597 15.585C28.6247 16.515 27.6947 17.01 26.5847 17.01C24.9497 17.01 23.5847 15.765 23.5847 13.635C23.5847 11.52 24.9797 10.26 26.6147 10.26C27.7547 10.26 28.5947 10.725 29.3297 11.67L33.0047 9.105C31.5947 7.095 29.4497 5.88 26.7197 5.88ZM41.6951 5.88C37.1051 5.88 33.7151 9.18 33.7151 13.635C33.7151 18.09 37.1051 21.39 41.6951 21.39C46.3001 21.39 49.6901 18.09 49.6901 13.635C49.6901 9.18 46.3001 5.88 41.6951 5.88ZM41.6951 10.26C43.5401 10.26 44.8901 11.655 44.8901 13.635C44.8901 15.615 43.5401 17.01 41.6951 17.01C39.8651 17.01 38.5151 15.615 38.5151 13.635C38.5151 11.655 39.8651 10.26 41.6951 10.26ZM69.9163 5.88C67.8913 5.88 66.2413 6.645 65.2513 8.34C64.3513 6.765 62.7013 5.88 60.7663 5.88C58.8013 5.88 57.3163 6.585 56.3863 8.13V6.285H51.8863V21H56.5813V13.08C56.5813 11.175 57.6613 10.29 58.9663 10.29C60.4213 10.29 61.2913 11.265 61.2913 13.005V21H65.9863V13.08C65.9863 11.175 67.0813 10.29 68.3713 10.29C69.8413 10.29 70.7113 11.265 70.7113 13.005V21H75.4063V11.34C75.4063 7.95 73.2763 5.88 69.9163 5.88ZM96.3017 5.88C94.2767 5.88 92.6267 6.645 91.6367 8.34C90.7367 6.765 89.0867 5.88 87.1517 5.88C85.1867 5.88 83.7017 6.585 82.7717 8.13V6.285H78.2717V21H82.9667V13.08C82.9667 11.175 84.0467 10.29 85.3517 10.29C86.8067 10.29 87.6767 11.265 87.6767 13.005V21H92.3717V13.08C92.3717 11.175 93.4667 10.29 94.7567 10.29C96.2267 10.29 97.0967 11.265 97.0967 13.005V21H101.792V11.34C101.792 7.95 99.6617 5.88 96.3017 5.88ZM111.422 5.88C106.952 5.88 103.877 9.09 103.877 13.725C103.877 18.315 107.012 21.39 111.632 21.39C114.347 21.39 116.582 20.505 118.112 18.975L115.082 16.155C114.152 16.995 112.967 17.445 111.872 17.445C110.252 17.445 109.112 16.695 108.722 15.09H118.697C118.757 14.775 118.787 14.115 118.787 13.635C118.772 9.03 115.787 5.88 111.422 5.88ZM111.437 9.87C112.802 9.87 113.717 10.65 114.092 12.12H108.737C109.097 10.665 109.982 9.87 111.437 9.87ZM129.484 5.88C127.684 5.88 126.319 6.555 125.464 7.98V6.285H120.964V21H125.659V13.05C125.659 11.22 126.679 10.395 128.344 10.395C129.184 10.395 130.069 10.575 130.699 10.785L131.134 6.105C130.774 6 130.174 5.88 129.484 5.88ZM139.71 5.88C135.015 5.88 131.775 9.135 131.775 13.635C131.775 18.135 135.015 21.39 139.71 21.39C142.44 21.39 144.6 20.19 146.01 18.195L142.35 15.585C141.615 16.515 140.685 17.01 139.575 17.01C137.94 17.01 136.575 15.765 136.575 13.635C136.575 11.52 137.97 10.26 139.605 10.26C140.745 10.26 141.585 10.725 142.32 11.67L145.995 9.105C144.585 7.095 142.44 5.88 139.71 5.88ZM154.25 5.88C149.78 5.88 146.705 9.09 146.705 13.725C146.705 18.315 149.84 21.39 154.46 21.39C157.175 21.39 159.41 20.505 160.94 18.975L157.91 16.155C156.98 16.995 155.795 17.445 154.7 17.445C153.08 17.445 151.94 16.695 151.55 15.09H161.525C161.585 14.775 161.615 14.115 161.615 13.635C161.6 9.03 158.615 5.88 154.25 5.88ZM154.265 9.87C155.63 9.87 156.545 10.65 156.92 12.12H151.565C151.925 10.665 152.81 9.87 154.265 9.87ZM11.09 32.61C4.61 32.61 0.0350001 37.14 0.0350001 43.5C0.0350001 49.86 4.61 54.39 11.09 54.39C15.11 54.39 18.305 52.605 20.225 49.74L16.115 46.83C14.915 48.615 13.175 49.59 11.045 49.59C7.94 49.59 5.255 47.4 5.255 43.5C5.255 39.9 7.715 37.41 11.03 37.41C13.205 37.41 14.93 38.4 16.025 40.185L20.42 37.665C18.635 34.485 15.095 32.61 11.09 32.61ZM29.3721 38.88C24.7821 38.88 21.3921 42.18 21.3921 46.635C21.3921 51.09 24.7821 54.39 29.3721 54.39C33.9771 54.39 37.3671 51.09 37.3671 46.635C37.3671 42.18 33.9771 38.88 29.3721 38.88ZM29.3721 43.26C31.2171 43.26 32.5671 44.655 32.5671 46.635C32.5671 48.615 31.2171 50.01 29.3721 50.01C27.5421 50.01 26.1921 48.615 26.1921 46.635C26.1921 44.655 27.5421 43.26 29.3721 43.26ZM48.4434 38.88C46.4784 38.88 44.9934 39.585 44.0634 41.13V39.285H39.5634V54H44.2584V46.08C44.2584 44.175 45.3384 43.29 46.6434 43.29C48.0984 43.29 48.9684 44.265 48.9684 46.005V54H53.6634V44.34C53.6634 40.935 51.3834 38.88 48.4434 38.88ZM63.6702 38.88C58.9752 38.88 55.7352 42.135 55.7352 46.635C55.7352 51.135 58.9752 54.39 63.6702 54.39C66.4002 54.39 68.5602 53.19 69.9702 51.195L66.3102 48.585C65.5752 49.515 64.6452 50.01 63.5352 50.01C61.9002 50.01 60.5352 48.765 60.5352 46.635C60.5352 44.52 61.9302 43.26 63.5652 43.26C64.7052 43.26 65.5452 43.725 66.2802 44.67L69.9552 42.105C68.5452 40.095 66.4002 38.88 63.6702 38.88ZM78.2106 38.88C73.7406 38.88 70.6656 42.09 70.6656 46.725C70.6656 51.315 73.8006 54.39 78.4206 54.39C81.1356 54.39 83.3706 53.505 84.9006 51.975L81.8706 49.155C80.9406 49.995 79.7556 50.445 78.6606 50.445C77.0406 50.445 75.9006 49.695 75.5106 48.09H85.4856C85.5456 47.775 85.5756 47.115 85.5756 46.635C85.5606 42.03 82.5756 38.88 78.2106 38.88ZM78.2256 42.87C79.5906 42.87 80.5056 43.65 80.8806 45.12H75.5256C75.8856 43.665 76.7706 42.87 78.2256 42.87ZM96.4979 38.88C94.5029 38.88 93.1679 39.72 92.2829 40.875V39.285H87.7529V60H92.4329V52.605C93.3179 53.655 94.6079 54.39 96.4979 54.39C100.428 54.39 103.353 50.97 103.353 46.62C103.353 42.3 100.428 38.88 96.4979 38.88ZM95.3729 43.26C97.2629 43.26 98.5229 44.715 98.5229 46.635C98.5229 48.555 97.2629 50.01 95.3729 50.01C93.5279 50.01 92.2379 48.585 92.2379 46.635C92.2379 44.685 93.5279 43.26 95.3729 43.26ZM116.689 39.285H111.664V34.995H106.969V39.285H104.224V43.44H106.969V48.345C106.969 52.035 108.754 54.39 112.699 54.39C115.069 54.39 116.539 53.715 117.919 52.755L116.299 49.095C115.564 49.53 114.619 50.01 113.749 50.01C112.564 50.01 111.664 49.44 111.664 47.745V43.44H116.689V39.285Z" fill="white"/>
</svg>
